Patient4_TMGait_0pt6_02_left_36_EMG.mot
version=1
nRows=20
nColumns=33
inDegrees=no
endheader
time	1LAddLong	2LGlutMax	3LGlutMed	4LIliopsoas	5LSemiMemb	6LBicFemLong	7LRecFem	8LVastMed	9LVastLat	10LGasMed	11LTibAnt	12lTibPost	13LPeroneusLong	14LSol	15LExtDigLong	16LFlexDigLong	17RAddLong	18RGlutMax	19RGlutMed	20RIliopsoas	21RSemiMemb	22RBicFemLong	23RRecFem	24RVastMed	25RVastLat	26RGasMed	27RTibAnt	28RTibPost	29RPeroneusLong	30RSol	31RExtDigLong	32RFlexDigLong
44.775	0.020905	-0.23895	-0.070648	0.054474	-0.089722	-0.13168	-0.050812	0.002899	0.061493	-0.084076	0.14526	0.014343	-0.12192	0.23575	0.03067	-0.002594	0.081787	-0.54153	-0.22293	0.017242	-0.46875	0.058594	0.037689	-0.15228	-0.16434	0.00412	0.056915	0.001221	0.74463	-0.089569	0.012207	-0.011749
44.776	0.019073	-0.24933	0.057373	0.019989	0.018768	-0.25742	0.016937	0.000305	0.049133	-0.03479	0.3302	-0.005798	-0.12894	0.25757	0.24033	-0.020142	0.16632	-0.49576	-0.1471	0.019226	-0.43945	-0.022583	0.11261	-0.23407	-0.11566	0.007172	0.058899	-0.001221	-0.34653	-0.12619	0.009766	-0.006409
44.777	0.01358	-0.22217	0.14893	0.00473	0.11093	-0.28305	0.003815	0.005493	0.057373	-0.028534	0.32852	-0.006866	-0.062714	0.30884	0.35416	-0.023651	0.23285	-0.50552	-0.34714	-0.013885	-0.42175	0.013733	0.11444	-0.35934	-0.18799	0.010071	0.068665	0.001221	-0.92682	-0.12985	0.015259	0.000916
44.778	-0.004883	-0.25345	0.12024	0.002441	-0.001678	-0.082855	0.024414	0.011597	0.033112	-0.075989	0.12283	-0.014954	0.034943	0.32074	0.093842	-0.013733	0.18982	-0.45746	-0.53741	-0.039215	-0.42358	0.12756	0.035248	-0.35263	-0.28137	0.006256	0.055542	-0.000458	0.2092	-0.11566	0.013123	0.000305
44.779	-0.016174	-0.29984	0.098419	0.004578	-0.11475	-0.45319	0.0383	0.011597	0.005646	-0.093079	-0.19073	-0.0177	0.10925	0.29968	-0.050964	-0.007935	0.063782	-0.40344	-0.41458	-0.005188	-0.06546	0.25101	-0.084991	-0.1358	-0.26337	0.005798	-0.002594	0.002899	0.39948	-0.06897	0.01236	-0.005493
44.78	-0.003967	-0.28	0.032501	0.000763	-0.059052	-0.63995	0.010834	0.008698	0.032349	-0.081024	-0.36285	-0.002594	0.070953	0.16205	-0.085297	-0.017395	-0.043793	-0.36453	-0.35309	0.00473	0.42068	0.25146	-0.21912	0.17548	-0.22293	0.005798	-0.12283	-0.002136	0.13657	0.056763	0.009308	-0.010986
44.781	-0.000916	-0.26169	0.009003	0.014343	0.055695	-0.39993	0.025024	-0.004883	0.009918	-0.06897	-0.20203	0.005188	-0.012207	0.083618	-0.002594	-0.011139	-0.047302	-0.3479	0.16266	0.016022	0.41077	0.16632	-0.13977	0.41916	0.21454	-0.001678	-0.07019	-0.000458	-0.88959	0.14648	0.008087	-0.003357
44.782	-0.001526	-0.2829	0.060425	0.012054	0.079651	-0.094147	0.065765	-0.000458	-0.11948	0.024109	-0.14435	0.00351	-0.000458	0.05127	-0.16815	-0.010834	-0.036469	-0.40192	0.17471	-0.018616	0.24551	0.16388	-0.004578	0.44342	0.62088	0.012665	0.003052	-0.001373	-0.64545	-0.049438	-0.001221	-0.009766
44.783	0.01297	-0.31281	0.042725	0.01358	0.030518	0.12161	0.079193	0.004272	-0.053711	0.19226	-0.075378	-0.00473	-0.015717	0.059967	-0.14465	-0.005951	-0.044861	-0.3862	-0.43228	-0.03479	0.028839	-0.04776	0.048218	0.26718	0.51224	0.003204	0.002899	-0.002441	-0.12161	-0.086365	0.01297	-0.012665
44.784	0.042267	-0.30472	-0.029602	0.011444	0.076141	0.020599	0.070801	0.001984	-0.02533	0.39825	-0.024109	0.002136	-0.003204	0.048981	-0.11932	0.012054	-0.063782	-0.36179	-0.8371	-0.067749	0.037537	-0.20386	0.075531	0.14801	0.040894	0.005188	0.005951	-0.002441	0.30685	-0.054321	0.011444	-0.014648
44.785	0.030823	-0.30029	-0.049133	0.028839	0.068817	-0.007782	0.095367	0.002594	-0.010071	0.53986	-0.059357	0.00351	0.035553	0.10742	-0.087585	0.089569	-0.078125	-0.32974	-0.80978	0.007172	0.17639	-0.36316	0.061798	0.029755	-0.36133	-0.000153	0.080261	0.001373	0.21042	-0.026093	0.016022	-0.01358
44.786	0.016479	-0.21637	-0.097198	0.023041	0.10162	0.052338	0.06134	0.006409	-0.018158	0.6041	-0.09964	0.000153	0.038605	0.10254	-0.058441	-0.21561	-0.079498	-0.20111	0.055695	0.011749	0.27451	-0.4982	-0.022125	-0.093689	-0.50079	0.003815	0.075989	-0.000916	0.52902	-0.013885	0.007172	-0.020905
44.787	0.003357	-0.22553	0.035706	-0.009003	0.059967	0.1506	0.060577	0.011597	-0.050659	0.32867	-0.045013	-0.015564	0.04364	0.10986	-0.001221	-0.086365	-0.10605	-0.14755	0.92697	-0.059814	0.1947	-0.43549	-0.12619	-0.19974	-0.014954	0.00473	0.074921	-0.002594	0.71686	-0.002136	0.013275	-0.010681
44.788	0.005035	-0.21484	0.1384	-0.016632	-0.024261	0.16602	0.037537	0.019836	-0.077515	0.23025	-0.011749	-0.020142	0.070953	0.046387	0.015106	-0.024719	-0.093079	-0.13534	1.2242	-0.079498	-0.020599	-0.22095	-0.36301	-0.10361	0.67902	0.003662	0.018311	0.002441	0.42343	0.026703	0.010529	-0.003967
44.789	0.003357	-0.22644	0.083008	0.002289	-0.10162	0.15656	0.002747	0.008545	-0.07843	-0.15045	-0.010223	0.32806	0.16861	-0.00473	0.094147	0.16449	-0.10101	-0.12268	0.91156	-0.065918	0.10452	-0.031433	-0.52551	-0.068207	0.65018	-0.001831	-0.082855	-0.001221	0.13763	-0.007782	0.011139	-0.012665
44.79	0.003815	-0.20844	0.044861	0.021057	-0.033722	0.12589	-0.011902	0.005798	-0.058746	0.25055	-0.019379	-0.10376	0.14069	0.009766	0.081177	0.02182	-0.1059	-0.17899	-0.18875	0.12619	0.1001	0.056458	-0.65948	0.026093	0.159	-0.002289	-0.014191	0.001526	-0.16327	-0.06012	0.007477	-0.014801
44.791	0.000153	-0.14847	0.044861	0.010986	-0.031586	0.29648	-0.039978	0.008698	-0.053253	-0.12787	-0.003052	-0.18204	0.084381	-0.2356	-0.047913	0.076904	-0.056458	-0.17258	-0.58197	0.15091	-0.26825	0.016632	-0.42313	-0.010681	-0.30624	-0.001831	0.059357	0.000458	-0.12543	-0.097504	0.009918	-0.006561
44.792	-0.004578	-0.13779	-0.004883	0.027313	-0.045471	0.2504	-0.054016	0.007172	-0.0354	-0.19806	0.030823	-0.12497	0.02121	-0.51544	0.1445	-0.13245	0.044403	-0.13519	-0.21408	0.13336	-0.35446	-0.033264	-0.20676	-0.18997	-0.61859	0.000153	0.067291	0.000305	-0.18326	-0.10346	0.008545	-0.02121
44.793	-0.008698	-0.14877	0.033112	0.028992	0.057068	-0.10712	-0.071869	0.014038	-0.047455	0.1799	0.041809	-0.10696	-0.032043	-1.0155	0.2652	0.26047	0.10407	-0.19134	0.29953	0.02121	-0.37506	-0.15121	-0.073547	-0.22369	-0.69366	0.006256	0.054779	-0.000305	-0.64041	-0.12299	0.003052	-0.012207
44.794	-0.024872	-0.15335	0.014648	0.000153	0.049591	-0.095062	-0.072937	0.004272	-0.016327	-0.079956	0.053101	-0.02655	-0.059967	-0.78522	-0.018768	-0.30518	0.15503	-0.19699	0.23514	-0.15732	-0.22629	-0.24841	0.081024	-0.271	-0.3624	0.016479	-0.02594	0.001068	-0.18021	-0.10696	0.001526	-0.006409
